<svg xmlns="http://www.w3.org/2000/svg" version="1.1" xmlns:xlink="http://www.w3.org/1999/xlink" xmlns:svgjs="http://svgjs.dev/svgjs" width="100%" height="100%" viewBox="0 0 1000 600"><rect width="1000" height="600" x="0" y="0" fill="#ffd898"/><g><circle r="166.66666666666666" cx="534.783701578776" cy="557.0058766450684" fill="#292826" transform="matrix(0.3395659303951743,0,0,0.33956593039517424,0,110.85977780719443)"/><path d="M502.3423809848288 632.0058678355367L502.3423809848288 563.6612575149206L435.5198558722266 563.6612575149206L435.5198558722266 632.0058678355367L418.3292464640716 632.0058678355367L418.3292464640716 482.00586282618474L435.5198558722266 482.00586282618474L435.5198558722266 548.6194742827852L502.3423809848288 548.6194742827852L502.3423809848288 482.00586282618474L519.5329903929837 482.00586282618474L519.5329903929837 632.0058678355367L502.3423809848288 632.0058678355367ZM572.3881453614601 567.5410825549557L572.3881453614601 632.0058678355367L555.1975359533053 632.0058678355367L555.1975359533053 482.00586282618474L610.4104307538029 482.00586282618474Q647.5970615221379 482.00586282618474 647.5970615221379 524.7734726905702L647.5970615221379 524.7734726905702Q647.5970615221379 560.8856903708956 620.9456479778978 566.466669466946L620.9456479778978 566.466669466946L651.2381280981708 632.0058678355367L631.8986925139966 632.0058678355367L603.7550385697429 567.5410825549557L572.3881453614601 567.5410825549557ZM572.3881453614601 552.9171266348238L609.992603441799 552.9171266348238Q629.1231253699716 552.9171266348238 629.1231253699716 532.294364306638L629.1231253699716 532.294364306638L629.1231253699716 517.7002531945064Q629.1231253699716 497.0476460583203 609.992603441799 497.0476460583203L609.992603441799 497.0476460583203L572.3881453614601 497.0476460583203L572.3881453614601 552.9171266348238Z " fill="#ffd898" transform="matrix(0.3395659303951743,0,0,0.33956593039517424,0,110.85977780719443)"/><path d="M866.0168586691314 629.5241423124744L866.0168586691314 563.4410328424774L801.4054691043613 563.4410328424774L801.4054691043613 629.5241423124744L784.7836913512092 629.5241423124744L784.7836913512092 484.48758851500486L801.4054691043613 484.48758851500486L801.4054691043613 548.8969773084692L866.0168586691314 548.8969773084692L866.0168586691314 484.48758851500486L882.6386364222834 484.48758851500486L882.6386364222834 629.5241423124744L866.0168586691314 629.5241423124744ZM1015.8148592188059 629.5241423124744L998.7890799230424 629.5241423124744L985.8898878125233 586.0939764817558L933.7448315626174 586.0939764817558L920.874496705142 629.5241423124744L904.2527189519899 629.5241423124744L949.5297489775031 484.48758851500486L970.3069711689433 484.48758851500486L1015.8148592188059 629.5241423124744ZM982.1673021698903 572.386781286014L965.3146663923889 517.3271424786976L960.7552204114895 499.26250207336227L958.6774981923455 499.26250207336227L954.1180522114461 517.3271424786976L937.6982752295997 572.386781286014L982.1673021698903 572.386781286014ZM1054.0507195016644 567.1924757381539L1054.0507195016644 629.5241423124744L1037.4289417485124 629.5241423124744L1037.4289417485124 484.48758851500486L1090.814859879296 484.48758851500486Q1126.770997171705 484.48758851500486 1126.770997171705 525.8400321265794L1126.770997171705 525.8400321265794Q1126.770997171705 560.7573083094163 1101.0014702037101 566.153614628582L1101.0014702037101 566.153614628582L1130.2915820430321 629.5241423124744L1111.592082070736 629.5241423124744L1084.3796924505582 567.1924757381539L1054.0507195016644 567.1924757381539ZM1054.0507195016644 553.0524217467573L1090.4108583366847 553.0524217467573Q1108.9083575376749 553.0524217467573 1108.9083575376749 533.1120598935835L1108.9083575376749 533.1120598935835L1108.9083575376749 519.0008631552304Q1108.9083575376749 499.0316440490129 1090.4108583366847 499.0316440490129L1090.4108583366847 499.0316440490129L1054.0507195016644 499.0316440490129L1054.0507195016644 553.0524217467573ZM1194.4989700651909 632.0058660742297L1194.4989700651909 632.0058660742297Q1178.9160534216107 632.0058660742297 1167.286580445013 625.4841268863611Q1155.6571074684152 618.9335304454487 1147.9522209057563 607.3040574688509L1147.9522209057563 607.3040574688509L1160.0145526780088 597.3194479157421Q1166.6517208780524 607.0731994445016 1174.9626097546284 612.3829340045363Q1183.2734986312043 617.692668564571 1194.4989700651909 617.692668564571L1194.4989700651909 617.692668564571Q1223.9910826758182 617.692668564571 1223.9910826758182 590.0474201487382L1223.9910826758182 590.0474201487382Q1223.9910826758182 578.8219487147517 1218.5947763566528 573.0216408529748Q1213.198470037487 567.1924757381539 1199.8952763843567 563.8738916381324L1199.8952763843567 563.8738916381324L1189.1026637460252 561.1613098520277Q1169.9703049780742 556.3998630998226 1160.9379847754062 547.1366848728055Q1151.9056645727387 537.9023638988322 1151.9056645727387 521.0785853743744L1151.9056645727387 521.0785853743744Q1151.9056645727387 501.7442258351176 1163.9679963449912 491.87504529418356Q1176.0014708642007 482.0058647532495 1195.9418327173744 482.0058647532495L1195.9418327173744 482.0058647532495Q1211.1207478183428 482.0058647532495 1221.3939299018884 487.60417184372085Q1231.6959692384776 493.2313361872359 1239.3719985480927 505.26481070644496L1239.3719985480927 505.26481070644496L1227.1076660045342 514.0085583786761Q1221.509358914063 505.26481070644496 1214.3527601592336 500.8207937377203Q1207.1673041513604 496.3479195159519 1195.3358304034573 496.3479195159519L1195.3358304034573 496.3479195159519Q1182.0326367503267 496.3479195159519 1175.078038766803 502.1482273777289Q1168.1234407832794 507.97739249254965 1168.1234407832794 521.0785853743744L1168.1234407832794 521.0785853743744Q1168.1234407832794 531.6691972414001 1173.8371768859256 537.0655035605658Q1179.5509129885713 542.4618098797315 1192.2192470747411 545.5783932084476L1192.2192470747411 545.5783932084476L1203.0118597130727 548.2909749945522Q1213.198470037487 550.7726987563076 1220.2684970331852 554.2067118685039Q1227.3385240288837 557.6407249807003 1231.7825409976085 562.6330297572547Q1236.2554152193768 567.5964772807654 1238.2465656793897 574.3490744929834Q1240.2088588863592 581.1016717052014 1240.2088588863592 590.0474201487382L1240.2088588863592 590.0474201487382Q1240.2088588863592 610.6226415688725 1228.0599553549755 621.3286824480729Q1215.9110518235916 632.0058660742297 1194.4989700651909 632.0058660742297ZM1347.8464127392363 629.5241423124744L1347.8464127392363 563.4410328424774L1283.2061659214228 563.4410328424774L1283.2061659214228 629.5241423124744L1266.5843881682706 629.5241423124744L1266.5843881682706 484.48758851500486L1283.2061659214228 484.48758851500486L1283.2061659214228 548.8969773084692L1347.8464127392363 548.8969773084692L1347.8464127392363 484.48758851500486L1364.4681904923887 484.48758851500486L1364.4681904923887 629.5241423124744L1347.8464127392363 629.5241423124744ZM1459.610553777358 567.1924757381539L1459.610553777358 629.5241423124744L1442.9887760242057 629.5241423124744L1442.9887760242057 484.48758851500486L1496.403551408033 484.48758851500486Q1532.3308314473982 484.48758851500486 1532.3308314473982 525.8400321265794L1532.3308314473982 525.8400321265794Q1532.3308314473982 560.7573083094163 1506.5613044794038 566.153614628582L1506.5613044794038 566.153614628582L1535.8802735717693 629.5241423124744L1517.1807735994732 629.5241423124744L1489.9395267262519 567.1924757381539L1459.610553777358 567.1924757381539ZM1459.610553777358 553.0524217467573L1495.9706926123783 553.0524217467573Q1514.4681918133685 553.0524217467573 1514.4681918133685 533.1120598935835L1514.4681918133685 533.1120598935835L1514.4681918133685 519.0008631552304Q1514.4681918133685 499.0316440490129 1495.9706926123783 499.0316440490129L1495.9706926123783 499.0316440490129L1459.610553777358 499.0316440490129L1459.610553777358 553.0524217467573ZM1643.2869694002973 629.5241423124744L1563.0926631919472 629.5241423124744L1563.0926631919472 484.48758851500486L1643.2869694002973 484.48758851500486L1643.2869694002973 499.0316440490129L1579.714440945099 499.0316440490129L1579.714440945099 548.8969773084692L1639.333525733315 548.8969773084692L1639.333525733315 563.4410328424774L1579.714440945099 563.4410328424774L1579.714440945099 614.9800867784663L1643.2869694002973 614.9800867784663L1643.2869694002973 629.5241423124744ZM1709.3700788702947 632.0058660742297L1709.3700788702947 632.0058660742297Q1693.7871622267141 632.0058660742297 1682.128831997073 625.4841268863611Q1670.4993590204751 618.9335304454487 1662.8233297108598 607.3040574688509L1662.8233297108598 607.3040574688509L1674.8568042300687 597.3194479157421Q1681.5228296831558 607.0731994445016 1689.8337185597322 612.3829340045363Q1698.1446074363082 617.692668564571 1709.3700788702947 617.692668564571L1709.3700788702947 617.692668564571Q1738.862191480922 617.692668564571 1738.862191480922 590.0474201487382L1738.862191480922 590.0474201487382Q1738.862191480922 578.8219487147517 1733.4658851617562 573.0216408529748Q1728.0695788425908 567.1924757381539 1714.7663851894602 563.8738916381324L1714.7663851894602 563.8738916381324L1703.9449152980849 561.1613098520277Q1684.8414137831776 556.3998630998226 1675.80909358051 547.1366848728055Q1666.7767733778421 537.9023638988322 1666.7767733778421 521.0785853743744L1666.7767733778421 521.0785853743744Q1666.7767733778421 501.7442258351176 1678.8102478970516 491.87504529418356Q1690.872579669304 482.0058647532495 1710.8129415224778 482.0058647532495L1710.8129415224778 482.0058647532495Q1725.9918566234467 482.0058647532495 1736.2650387069918 487.60417184372085Q1746.538220790537 493.2313361872359 1754.2431073531964 505.26481070644496L1754.2431073531964 505.26481070644496L1741.978774809638 514.0085583786761Q1736.3804677191667 505.26481070644496 1729.1950117112935 500.8207937377203Q1722.0384129564638 496.3479195159519 1710.1780819555172 496.3479195159519L1710.1780819555172 496.3479195159519Q1696.9037455554305 496.3479195159519 1689.9202903188632 502.1482273777289Q1682.9656923353393 507.97739249254965 1682.9656923353393 521.0785853743744L1682.9656923353393 521.0785853743744Q1682.9656923353393 531.6691972414001 1688.679428437985 537.0655035605658Q1694.3931645406312 542.4618098797315 1707.0614986268013 545.5783932084476L1707.0614986268013 545.5783932084476L1717.882968518176 548.2909749945522Q1728.0695788425908 550.7726987563076 1735.1107485852451 554.2067118685039Q1742.1807755809434 557.6407249807003 1746.653649802712 562.6330297572547Q1751.1265240244804 567.5964772807654 1753.0888172314496 574.3490744929834Q1755.0799676914628 581.1016717052014 1755.0799676914628 590.0474201487382L1755.0799676914628 590.0474201487382Q1755.0799676914628 610.6226415688725 1742.9022069070354 621.3286824480729Q1730.7533033756515 632.0058660742297 1709.3700788702947 632.0058660742297ZM1864.362384967829 499.0316440490129L1823.4139428988658 499.0316440490129L1823.4139428988658 629.5241423124744L1806.7921651457134 629.5241423124744L1806.7921651457134 499.0316440490129L1765.8725803297941 499.0316440490129L1765.8725803297941 484.48758851500486L1864.362384967829 484.48758851500486L1864.362384967829 499.0316440490129ZM1972.4039403633176 629.5241423124744L1955.3493038145104 629.5241423124744L1942.478968957035 586.0939764817558L1890.3339127071288 586.0939764817558L1877.4347205966098 629.5241423124744L1860.812942843458 629.5241423124744L1906.1188301220147 484.48758851500486L1926.896052313455 484.48758851500486L1972.4039403633176 629.5241423124744ZM1938.7275260613585 572.386781286014L1921.9037475369003 517.3271424786976L1917.3443015560013 499.26250207336227L1915.2665793368571 499.26250207336227L1910.6782761029142 517.3271424786976L1894.2873563741116 572.386781286014L1938.7275260613585 572.386781286014ZM1990.468580768653 484.48758851500486L2007.090358521805 484.48758851500486L2007.090358521805 578.4179471721404Q2007.090358521805 588.1716987008997 2008.648650186163 595.4437264679038Q2010.2069418505214 602.7157542349078 2013.756383974892 607.5926299992875Q2017.2769688462197 612.498363016711 2023.1927057201713 614.8646577662917Q2029.1084425941228 617.259809768916 2037.6501894950482 617.259809768916L2037.6501894950482 617.259809768916Q2054.6759687908116 617.259809768916 2061.42856600303 607.5926299992875Q2068.1811632152476 597.9543074827029 2068.1811632152476 578.4179471721404L2068.1811632152476 578.4179471721404L2068.1811632152476 484.48758851500486L2084.8029409683995 484.48758851500486L2084.8029409683995 575.0993630721186Q2084.8029409683995 589.6434186061267 2082.321217206645 600.3206022322836Q2079.8106361918453 611.026643111484 2074.2989008605055 618.0966701071823Q2068.816022782208 625.1666971028806 2059.754845326497 628.600710215077Q2050.7225251238297 632.0058660742297 2037.6501894950482 632.0058660742297L2037.6501894950482 632.0058660742297Q2024.5489966132234 632.0058660742297 2015.5166764105559 628.600710215077Q2006.484356207888 625.1666971028806 2000.972620876548 618.0966701071823Q1995.4608855452072 611.026643111484 1992.979161783452 600.3206022322836Q1990.468580768653 589.6434186061267 1990.468580768653 575.0993630721186L1990.468580768653 575.0993630721186L1990.468580768653 484.48758851500486ZM2135.072275770468 567.1924757381539L2135.072275770468 629.5241423124744L2118.450498017315 629.5241423124744L2118.450498017315 484.48758851500486L2171.865273401143 484.48758851500486Q2207.7925534405076 484.48758851500486 2207.7925534405076 525.8400321265794L2207.7925534405076 525.8400321265794Q2207.7925534405076 560.7573083094163 2182.0518837255568 566.153614628582L2182.0518837255568 566.153614628582L2211.3419955648787 629.5241423124744L2192.642495592583 629.5241423124744L2165.430105972405 567.1924757381539L2135.072275770468 567.1924757381539ZM2135.072275770468 553.0524217467573L2171.432414605488 553.0524217467573Q2189.929913806478 553.0524217467573 2189.929913806478 533.1120598935835L2189.929913806478 533.1120598935835L2189.929913806478 519.0008631552304Q2189.929913806478 499.0316440490129 2171.432414605488 499.0316440490129L2171.432414605488 499.0316440490129L2135.072275770468 499.0316440490129L2135.072275770468 553.0524217467573ZM2337.2461905943974 629.5241423124744L2320.2204112986337 629.5241423124744L2307.321219188115 586.0939764817558L2255.176162938209 586.0939764817558L2242.3058280807336 629.5241423124744L2225.6840503275816 629.5241423124744L2270.961080353095 484.48758851500486L2291.738302544535 484.48758851500486L2337.2461905943974 629.5241423124744ZM2303.598633545482 572.386781286014L2286.74599776798 517.3271424786976L2282.186551787081 499.26250207336227L2280.1088295679365 499.26250207336227L2275.5493835870375 517.3271424786976L2259.129606605191 572.386781286014L2303.598633545482 572.386781286014ZM2436.5728555706983 629.5241423124744L2388.352385734731 535.3917828840331L2375.6840516485618 505.4956687307943L2373.606329429417 505.4956687307943L2375.049192081601 535.3917828840331L2375.049192081601 629.5241423124744L2358.8602731241035 629.5241423124744L2358.8602731241035 484.48758851500486L2379.2046365198885 484.48758851500486L2427.4251063558568 578.619947943446L2440.093440442026 608.5449193497286L2442.1711626611705 608.5449193497286L2440.7283000089865 578.619947943446L2440.7283000089865 484.48758851500486L2456.9172189664832 484.48758851500486L2456.9172189664832 629.5241423124744L2436.5728555706983 629.5241423124744ZM2576.81910536292 499.0316440490129L2535.8706632939557 499.0316440490129L2535.8706632939557 629.5241423124744L2519.2488855408037 629.5241423124744L2519.2488855408037 499.0316440490129L2478.329300724885 499.0316440490129L2478.329300724885 484.48758851500486L2576.81910536292 484.48758851500486L2576.81910536292 499.0316440490129Z " fill="#292826" transform="matrix(0.3395659303951743,0,0,0.33956593039517424,0,110.85977780719443)"/></g></svg>